<?xml version="1.0" encoding="UTF-8" standalone="no"?>
<!-- Created with Inkscape (http://www.inkscape.org/) -->

<svg
   xmlns:dc="http://purl.org/dc/elements/1.1/"
   xmlns:cc="http://creativecommons.org/ns#"
   xmlns:rdf="http://www.w3.org/1999/02/22-rdf-syntax-ns#"
   xmlns:svg="http://www.w3.org/2000/svg"
   xmlns="http://www.w3.org/2000/svg"
   xmlns:sodipodi="http://sodipodi.sourceforge.net/DTD/sodipodi-0.dtd"
   xmlns:inkscape="http://www.inkscape.org/namespaces/inkscape"
   width="83.966599mm"
   height="45.697063mm"
   viewBox="0 0 83.966599 45.697063"
   version="1.1"
   id="svg8"
   inkscape:version="0.92.3 (2405546, 2018-03-11)"
   sodipodi:docname="sonnet-working.svg"
   style="enable-background:new">
  <defs
     id="defs2">
    <filter
       inkscape:collect="always"
       style="color-interpolation-filters:sRGB"
       id="filter830">
      <feBlend
         inkscape:collect="always"
         mode="multiply"
         in2="BackgroundImage"
         id="feBlend832" />
    </filter>
  </defs>
  <sodipodi:namedview
     id="base"
     pagecolor="#ffffff"
     bordercolor="#666666"
     borderopacity="1.0"
     inkscape:pageopacity="0.0"
     inkscape:pageshadow="2"
     inkscape:zoom="5.6568542"
     inkscape:cx="79.389544"
     inkscape:cy="3.3387503"
     inkscape:document-units="mm"
     inkscape:current-layer="layer3"
     showgrid="false"
     showguides="true"
     inkscape:guide-bbox="true"
     inkscape:window-width="2560"
     inkscape:window-height="1377"
     inkscape:window-x="-8"
     inkscape:window-y="-8"
     inkscape:window-maximized="1" />
  <metadata
     id="metadata5">
    <rdf:RDF>
      <cc:Work
         rdf:about="">
        <dc:format>image/svg+xml</dc:format>
        <dc:type
           rdf:resource="http://purl.org/dc/dcmitype/StillImage" />
        <dc:title></dc:title>
      </cc:Work>
    </rdf:RDF>
  </metadata>
  <g
     inkscape:groupmode="layer"
     id="layer3"
     inkscape:label="Text"
     style="display:inline;filter:url(#filter830)"
     transform="translate(-63.016702,-125.65147)">
    <g
       aria-label="SONNET"
       transform="matrix(0.46266473,0,0,0.46266473,-44.743214,-111.94739)"
       style="font-style:normal;font-variant:normal;font-weight:bold;font-stretch:normal;font-size:53.33324432px;line-height:1.25;font-family:D-DIN;-inkscape-font-specification:'D-DIN, Bold';font-variant-ligatures:normal;font-variant-caps:normal;font-variant-numeric:normal;font-feature-settings:normal;text-align:start;letter-spacing:1.28666449px;word-spacing:0px;writing-mode:lr-tb;text-anchor:start;fill:#bc4700;fill-opacity:1;stroke:none;stroke-opacity:1"
       id="flowRoot4666">
      <path
         d="m 236.59145,609.27364 c 2.18666,1.97333 5.27999,2.93333 9.22665,2.93333 3.99999,0 7.19999,-0.96 9.54665,-2.93333 2.34666,-1.91999 3.57333,-4.74666 3.57333,-8.47998 0,-5.75999 -3.2,-9.17332 -9.49332,-10.34665 l -3.89332,-0.69333 c -1.76,-0.32 -3.04,-0.85334 -3.84,-1.6 -0.85333,-0.74667 -1.22666,-1.76 -1.22666,-3.04 0,-1.43999 0.42666,-2.55999 1.38666,-3.41332 0.90667,-0.85334 2.29333,-1.28 4.10666,-1.28 1.76,0 3.09333,0.42666 4.05333,1.22666 0.90666,0.85333 1.44,2.13333 1.54666,3.89333 h 6.71999 c -0.32,-3.46666 -1.49333,-6.18666 -3.62666,-8.10665 -2.13333,-1.92 -4.95999,-2.88 -8.58665,-2.88 -3.73333,0 -6.77332,1.01333 -9.01332,2.98666 -2.24,2.02667 -3.36,4.69333 -3.36,8.10666 0,5.75999 3.30667,9.17331 9.97332,10.23998 l 3.46666,0.58666 c 1.70667,0.32 2.93333,0.85334 3.73333,1.6 0.74666,0.74667 1.17333,1.86667 1.17333,3.30666 0,3.25333 -1.97333,4.85333 -5.91999,4.85333 -2.08,0 -3.62666,-0.37333 -4.69332,-1.22667 -1.06667,-0.85333 -1.70667,-2.29333 -1.92,-4.31999 h -6.61332 c 0.21333,3.73333 1.43999,6.61332 3.67999,8.58665 z"
         style="font-style:normal;font-variant:normal;font-weight:bold;font-stretch:normal;font-size:53.33324432px;font-family:D-DIN;-inkscape-font-specification:'D-DIN, Bold';font-variant-ligatures:normal;font-variant-caps:normal;font-variant-numeric:normal;font-feature-settings:normal;text-align:start;letter-spacing:-0.01715605px;writing-mode:lr-tb;text-anchor:start;fill:#bc4700;fill-opacity:1"
         id="path834" />
      <path
         d="m 263.49841,597.647 c 0,9.81331 4.37333,14.66664 13.17332,14.66664 4.10666,0 7.35998,-1.12 9.81331,-3.41333 2.45333,-2.29333 3.68,-6.02666 3.68,-11.25331 v -8.42666 c 0,-5.17332 -1.22667,-8.90665 -3.57333,-11.19998 -2.4,-2.29333 -5.65332,-3.46666 -9.70665,-3.46666 -8.95999,0 -13.38665,4.90666 -13.38665,14.66664 z m 18.13331,6.39999 c -1.06667,1.38666 -2.61333,2.02666 -4.74666,2.02666 -2.24,0 -3.89333,-0.64 -4.85333,-1.97333 -1.01333,-1.33333 -1.49333,-3.52 -1.49333,-6.55999 v -7.94665 c 0,-3.2 0.48,-5.43999 1.49333,-6.82666 0.96,-1.38666 2.61333,-2.08 4.85333,-2.08 2.13333,0 3.67999,0.74667 4.74666,2.13333 1.01333,1.38667 1.54666,3.68 1.54666,6.77333 v 7.94665 c 0,2.98666 -0.53333,5.11999 -1.54666,6.50666 z"
         style="font-style:normal;font-variant:normal;font-weight:bold;font-stretch:normal;font-size:53.33324432px;font-family:D-DIN;-inkscape-font-specification:'D-DIN, Bold';font-variant-ligatures:normal;font-variant-caps:normal;font-variant-numeric:normal;font-feature-settings:normal;text-align:start;letter-spacing:-0.01715605px;writing-mode:lr-tb;text-anchor:start;fill:#bc4700;fill-opacity:1"
         id="path836" />
      <path
         d="m 322.93949,575.08703 h -6.98665 V 598.127 l -13.54665,-23.03997 h -6.98665 v 36.79994 h 6.98665 v -22.98663 l 13.54665,22.98663 h 6.98665 z"
         style="font-style:normal;font-variant:normal;font-weight:bold;font-stretch:normal;font-size:53.33324432px;font-family:D-DIN;-inkscape-font-specification:'D-DIN, Bold';font-variant-ligatures:normal;font-variant-caps:normal;font-variant-numeric:normal;font-feature-settings:normal;text-align:start;letter-spacing:-0.01715605px;writing-mode:lr-tb;text-anchor:start;fill:#bc4700;fill-opacity:1"
         id="path838" />
      <path
         d="m 356.77645,575.08703 h -6.98666 V 598.127 l -13.54664,-23.03997 h -6.98666 v 36.79994 h 6.98666 v -22.98663 l 13.54664,22.98663 h 6.98666 z"
         style="font-style:normal;font-variant:normal;font-weight:bold;font-stretch:normal;font-size:53.33324432px;font-family:D-DIN;-inkscape-font-specification:'D-DIN, Bold';font-variant-ligatures:normal;font-variant-caps:normal;font-variant-numeric:normal;font-feature-settings:normal;text-align:start;letter-spacing:-0.01715605px;writing-mode:lr-tb;text-anchor:start;fill:#bc4700;fill-opacity:1"
         id="path840" />
      <path
         d="m 370.08011,581.16702 h 16.37331 v -6.07999 h -23.35997 v 36.79994 h 23.35997 v -6.07999 H 370.08011 V 596.367 h 13.97331 v -6.07999 h -13.97331 z"
         style="font-style:normal;font-variant:normal;font-weight:bold;font-stretch:normal;font-size:53.33324432px;font-family:D-DIN;-inkscape-font-specification:'D-DIN, Bold';font-variant-ligatures:normal;font-variant-caps:normal;font-variant-numeric:normal;font-feature-settings:normal;text-align:start;letter-spacing:-0.01715605px;writing-mode:lr-tb;text-anchor:start;fill:#bc4700;fill-opacity:1"
         id="path842" />
      <path
         d="m 414.39621,581.16702 v -6.07999 h -25.81329 v 6.07999 h 9.38665 v 30.71995 h 7.03999 v -30.71995 z"
         style="font-style:normal;font-variant:normal;font-weight:bold;font-stretch:normal;font-size:53.33324432px;font-family:D-DIN;-inkscape-font-specification:'D-DIN, Bold';font-variant-ligatures:normal;font-variant-caps:normal;font-variant-numeric:normal;font-feature-settings:normal;text-align:start;letter-spacing:-0.01715605px;writing-mode:lr-tb;text-anchor:start;fill:#bc4700;fill-opacity:1"
         id="path844" />
    </g>
  </g>
  <g
     inkscape:label="Left Side Triangles"
     id="g4628"
     inkscape:groupmode="layer"
     transform="translate(-63.016702,-125.65147)">
    <path
       style="display:inline;fill:#f9bd00;fill-opacity:1;stroke:none;stroke-width:0.26499999;stroke-linecap:butt;stroke-linejoin:round;stroke-miterlimit:4;stroke-dasharray:none;stroke-opacity:1;paint-order:markers stroke fill"
       d="m 126.45987,135.71012 -9.64692,10.87709 c 0,0 -0.7359,-1.12595 -1.24747,-1.73561 -0.51157,-0.60966 -1.49262,-1.5299 -1.49262,-1.5299 z"
       id="path4622"
       inkscape:connector-curvature="0"
       sodipodi:nodetypes="cccc" />
    <path
       style="display:inline;fill:#f9bd00;fill-opacity:1;stroke:none;stroke-width:0.26499999;stroke-linecap:butt;stroke-linejoin:round;stroke-miterlimit:4;stroke-dasharray:none;stroke-opacity:1;paint-order:markers stroke fill"
       d="m 114.58677,133.53266 -5.58694,6.93714 c 0,0 1.27266,0.43552 1.98965,0.78093 0.71699,0.34543 1.85075,1.06923 1.85075,1.06923 z"
       id="path4624"
       inkscape:connector-curvature="0"
       sodipodi:nodetypes="ccccc" />
    <path
       style="display:inline;fill:#f9bd00;fill-opacity:1;stroke:none;stroke-width:0.26499999;stroke-linecap:butt;stroke-linejoin:round;stroke-miterlimit:4;stroke-dasharray:none;stroke-opacity:1;paint-order:markers stroke fill"
       d="m 126.59101,148.01116 -8.90538,0.17926 c 0,0 0.48443,1.25486 0.68069,2.02613 0.19622,0.7713 0.37057,2.10505 0.37057,2.10505 z"
       id="path4626"
       inkscape:connector-curvature="0"
       sodipodi:nodetypes="ccccc" />
  </g>
  <g
     inkscape:groupmode="layer"
     id="layer2"
     inkscape:label="Middle Triangle"
     style="display:inline"
     transform="translate(-63.016702,-125.65147)">
    <path
       style="fill:#f9bd00;fill-opacity:1;stroke:none;stroke-width:0.26499999;stroke-linecap:butt;stroke-linejoin:round;stroke-miterlimit:4;stroke-dasharray:none;stroke-opacity:1;paint-order:markers stroke fill"
       d="m 104.99995,125.65147 2.13141,14.38163 c 0,0 -1.33555,-0.16001 -2.13141,-0.16001 -0.79586,0 -2.13141,0.16001 -2.13141,0.16001 z"
       id="path826-9"
       inkscape:connector-curvature="0"
       sodipodi:nodetypes="cccc" />
  </g>
  <g
     inkscape:groupmode="layer"
     id="layer9"
     inkscape:label="Half-Circle"
     transform="translate(-63.016702,-125.65147)">
    <path
       style="display:inline;fill:#f9bd00;fill-opacity:1;stroke:none;stroke-width:0.26458332px;stroke-linecap:butt;stroke-linejoin:miter;stroke-opacity:1"
       d="m 93.944773,152.46042 c 0,0 1.315672,-9.98878 11.055487,-9.98878 9.73982,0 11.05549,9.98878 11.05549,9.98878 z"
       id="path4644"
       inkscape:connector-curvature="0"
       sodipodi:nodetypes="ccc" />
  </g>
  <g
     inkscape:groupmode="layer"
     id="layer7"
     inkscape:label="Right Side Triangles"
     transform="translate(-63.016702,-125.65147)">
    <path
       sodipodi:nodetypes="cccc"
       inkscape:connector-curvature="0"
       id="path862"
       d="m 83.540129,135.71012 9.646866,10.87709 c 0,0 0.735894,-1.12595 1.247461,-1.73561 0.511567,-0.60966 1.492614,-1.5299 1.492614,-1.5299 z"
       style="display:inline;fill:#f9bd00;fill-opacity:1;stroke:none;stroke-width:0.26499999;stroke-linecap:butt;stroke-linejoin:round;stroke-miterlimit:4;stroke-dasharray:none;stroke-opacity:1;paint-order:markers stroke fill" />
    <path
       sodipodi:nodetypes="ccccc"
       inkscape:connector-curvature="0"
       id="path862-9"
       d="m 95.413163,133.53266 5.586907,6.93714 c 0,0 -1.272654,0.43552 -1.989638,0.78093 -0.716987,0.34543 -1.850741,1.06923 -1.850741,1.06923 z"
       style="display:inline;fill:#f9bd00;fill-opacity:1;stroke:none;stroke-width:0.26499999;stroke-linecap:butt;stroke-linejoin:round;stroke-miterlimit:4;stroke-dasharray:none;stroke-opacity:1;paint-order:markers stroke fill" />
    <path
       sodipodi:nodetypes="ccccc"
       inkscape:connector-curvature="0"
       id="path862-9-0"
       d="m 83.408989,148.01116 8.905329,0.17926 c 0,0 -0.484427,1.25486 -0.680684,2.02613 -0.19622,0.7713 -0.37057,2.10505 -0.37057,2.10505 z"
       style="display:inline;fill:#f9bd00;fill-opacity:1;stroke:none;stroke-width:0.26499999;stroke-linecap:butt;stroke-linejoin:round;stroke-miterlimit:4;stroke-dasharray:none;stroke-opacity:1;paint-order:markers stroke fill" />
  </g>
</svg>
